<svg id="Layer_1" data-name="Layer 1" xmlns="http://www.w3.org/2000/svg" viewBox="0 0 54.9 71.89"><defs><style>.cls-1{fill:#f6f6f7;}.cls-2{fill:#626363;}.cls-3{fill:#b9c0c3;}.cls-4{fill:#b3babe;}.cls-5{fill:#b5bcbf;}.cls-6{fill:#dcdee0;}.cls-7{fill:#d1d8dc;}.cls-8{fill:#e3e7e9;}.cls-9{fill:#eceeef;}.cls-10{fill:#e41e29;}.cls-11{fill:#dcddde;}.cls-12{fill:#e2e4e4;}.cls-13{fill:#bdc0c1;}.cls-14{fill:#f7eee2;}.cls-15{fill:#ebf1d6;}.cls-16{fill:#dce8f2;}.cls-17{fill:#edd4e5;}.cls-18{fill:#b4b8b9;}.cls-19{fill:#d8dfe3;}.cls-20{fill:#eff4e3;}.cls-21{fill:#e1ebf3;}.cls-22{fill:#edd7e6;}.cls-23{fill:#eef3e0;}.cls-24{fill:#1b508e;}.cls-25{fill:#9ca1a4;}.cls-26{fill:#f8cc89;}.cls-27{fill:#6d0308;}.cls-28{fill:#adb5b8;}</style></defs><title>lista</title><path class="cls-1" d="M29.66,12.79a1.61,1.61,0,0,0,1.74.06,1.5,1.5,0,0,0,.7-1.34c0-.73,0-1.46,0-2.19,0-.55.07-.63.53-.63.92,0,1.84,0,2.77,0,.33,0,.46.11.45.51,0,.76,0,1.52,0,2.28A1.68,1.68,0,0,0,37,13a1.6,1.6,0,0,0,1.8-.81,2,2,0,0,0,.18-.89c0-.71,0-1.43,0-2.14,0-.37.08-.53.43-.53q1.44,0,2.89,0c.35,0,.44.16.43.53,0,.7,0,1.4,0,2.1a1.64,1.64,0,0,0,.83,1.61,1.45,1.45,0,0,0,1.62-.12,1.72,1.72,0,0,0,.62-1.43c0-.74,0-1.49,0-2.23,0-.34.1-.49.39-.49,1,0,2,0,2.93,0,.35,0,.46.16.47.6,0,.71,0,1.43,0,2.14a1.49,1.49,0,0,0,.16.75c.06.52.44.67.78.83a1.5,1.5,0,0,0,1.93-.7,1.37,1.37,0,0,0,.15-.61c0-.81,0-1.62,0-2.43,0-.39.08-.57.46-.55a11.05,11.05,0,0,1,2.19.11,4,4,0,0,1,2.47,1.79A3,3,0,0,1,58,12.29q0,23.47,0,46.93Q58,66,58,72.71a3,3,0,0,1-.67,2.15,3,3,0,0,1-2.2,1.2q-24.43,0-48.86,0a3,3,0,0,1-2.44-1.37,3.71,3.71,0,0,1-.73-2.38q0-29.79,0-59.57A3.85,3.85,0,0,1,4.84,9.33a3.66,3.66,0,0,1,2.08-.64c.47,0,1,0,1.43,0,.23,0,.31.09.31.35,0,.75,0,1.49,0,2.24a1.79,1.79,0,0,0,.55,1.51,1.52,1.52,0,0,0,1.89-.08,1.27,1.27,0,0,0,.37-1c0-.78,0-1.55,0-2.33s.12-.79.69-.79H15c.53,0,.56,0,.56.63q0,1.12,0,2.24a1.48,1.48,0,0,0,1.23,1.49,1.51,1.51,0,0,0,1.64-1.77c0-.68,0-1.37,0-2.05,0-.34.12-.53.43-.53h3.26a.3.3,0,0,1,.19.06.92.92,0,0,1,.1.57c0,.81,0,1.62,0,2.44a1.14,1.14,0,0,0,0,.14,1.53,1.53,0,0,0,.51.93c.26.34.63.25.95.26a.81.81,0,0,0,.76-.23l.18-.16a.79.79,0,0,0,.33-.59.64.64,0,0,1,.07-.14.91.91,0,0,0,.15-.61c0-.68,0-1.36,0-2,0-.45.08-.54.48-.54.95,0,1.89,0,2.84,0,.31,0,.39.12.39.46,0,.76,0,1.52,0,2.28A1.58,1.58,0,0,0,29.66,12.79Z" transform="translate(-3.1 -4.17)"/><path class="cls-2" d="M15.73,12.13a2.87,2.87,0,0,1-.08-.78c.06-1.82-.12-3.63-.08-5.44a1.43,1.43,0,0,1,1.32-1.53,1.4,1.4,0,0,1,1.45,1.52c0,2-.15,3.91-.08,5.86.11.16,0,.3,0,.43a1.44,1.44,0,0,1-2.4.28A.33.33,0,0,1,15.73,12.13Z" transform="translate(-3.1 -4.17)"/><path class="cls-2" d="M11.25,12.33a1.32,1.32,0,0,1-1.85.34,1.22,1.22,0,0,1-.59-1.09c0-2,0-4,0-6a1.31,1.31,0,0,1,1-1.15,1.38,1.38,0,0,1,1.6.72,1,1,0,0,1,.12.52q0,1.56,0,3.13c.08.94,0,1.88,0,2.81a1.06,1.06,0,0,1-.23.7Z" transform="translate(-3.1 -4.17)"/><path class="cls-2" d="M52.38,8.5c0,.9,0,1.8,0,2.7a1.63,1.63,0,0,1-.68,1.52,1.33,1.33,0,0,1-1.85-.58.85.85,0,0,1-.06-.22.82.82,0,0,1,0-.14c0-2-.06-4-.08-6a1.31,1.31,0,0,1,.94-1.42,1.33,1.33,0,0,1,1.67.84,1.25,1.25,0,0,1,.07.5s0,.09,0,.14q0,1.31,0,2.61Z" transform="translate(-3.1 -4.17)"/><path class="cls-2" d="M38.21,12.61h-.07c-.16.11-.33.18-.5.27h0a.6.6,0,0,1-.49,0h0a2.39,2.39,0,0,0-.41-.21,1,1,0,0,1-.57-1c-.08-1.27,0-2.55,0-3.82,0-.7,0-1.4,0-2.1A1.29,1.29,0,0,1,37.7,4.42a1.34,1.34,0,0,1,1,1.45c0,1.94-.1,3.88-.11,5.82A1.27,1.27,0,0,1,38.21,12.61Z" transform="translate(-3.1 -4.17)"/><path class="cls-2" d="M30.55,12.88h-.08a3.38,3.38,0,0,1-.49-.2,1.08,1.08,0,0,1-.61-1.05c0-.06,0,0,0,0,.06-1.77-.11-3.54-.08-5.3,0-.16,0-.31,0-.46a1.29,1.29,0,0,1,1-1.37A1.32,1.32,0,0,1,31.69,5a.79.79,0,0,1,.17.51c.11,1.92,0,3.85,0,5.77C31.84,12.32,31.55,12.72,30.55,12.88Z" transform="translate(-3.1 -4.17)"/><path class="cls-3" d="M38.21,12.61a3,3,0,0,0,.32-2c0-1.57.12-3.13.09-4.69,0-1-.59-1.42-1.27-1.39a1.1,1.1,0,0,0-1.11,1.26c0,1.88,0,3.76,0,5.63,0,.64.13,1.09.7,1.28a.32.32,0,0,1,.21.21,1,1,0,0,1-1-.94,3.61,3.61,0,0,1-.12-.87c0-1.71-.13-3.41-.09-5.11A1.57,1.57,0,0,1,37.4,4.3a1.49,1.49,0,0,1,1.47,1.64c0,1.78-.13,3.56-.1,5.34a1.61,1.61,0,0,1-.42,1.3S38.26,12.68,38.21,12.61Z" transform="translate(-3.1 -4.17)"/><path class="cls-4" d="M30.55,12.88l.38-.14a1.42,1.42,0,0,0,.84-1.47c0-1.88,0-3.76,0-5.64,0-.63-.81-1.3-1.34-1.12a5.61,5.61,0,0,0-.56.25c-.48.23-.43.77-.44,1.2-.06,2,.13,4,.07,6,0,.38.3.44.49.62a2.89,2.89,0,0,0,.49.3,1.23,1.23,0,0,1-1.22-1.36c0-1.86-.11-3.72-.1-5.58a1.63,1.63,0,0,1,1-1.57,1.42,1.42,0,0,1,1.64.54A2.45,2.45,0,0,1,32,6.22c.06,1.67-.09,3.34-.09,5,0,1.1-.35,1.53-1.15,1.71C30.69,13,30.61,13,30.55,12.88Z" transform="translate(-3.1 -4.17)"/><path class="cls-5" d="M44.4,12.88a1.14,1.14,0,0,1-1.45-1.06C43,9.88,42.69,8,42.77,6a1.69,1.69,0,0,1,.87-1.6,1.33,1.33,0,0,1,1.53.26,1.4,1.4,0,0,1,.46,1.09c0,1.93-.13,3.85-.09,5.77a4.65,4.65,0,0,1-.08.69.18.18,0,0,1-.08.18c-.33.15-.56.55-1,.48,0-.2.13-.27.24-.32a1.17,1.17,0,0,0,.61-1.2q0-1.58,0-3.17c0-.81,0-1.62,0-2.42a1,1,0,0,0-1-1.12,1.07,1.07,0,0,0-1.08.91,12.49,12.49,0,0,0,0,2.65c.07,1,0,2,.06,3.07,0,.85.12,1,.79,1.37A.88.88,0,0,1,44.4,12.88Z" transform="translate(-3.1 -4.17)"/><path class="cls-6" d="M11.5,11.76q0-1.49,0-3A.52.52,0,0,1,12,8.49c1,0,2,0,3,0,.38,0,.53.16.53.6,0,.85,0,1.7,0,2.55,0,.18,0,.38.16.49.16.61,1,.83,1.54.75a1.39,1.39,0,0,0,1-1.12c.13-.18.07-.39.07-.58,0-.67,0-1.33,0-2s.06-.68.58-.68h3.33a.15.15,0,0,1,0,.09.15.15,0,0,1,0,.09H19c-.51,0-.57.07-.57.64,0,.75,0,1.49,0,2.24A1.44,1.44,0,0,1,17.56,13a1.57,1.57,0,0,1-1.93-.64,1.07,1.07,0,0,1-.14-.62c0-.85,0-1.71,0-2.56,0-.37-.12-.49-.43-.48-1,0-2,0-3.05,0-.33,0-.43.16-.43.5,0,.89,0,1.77,0,2.66a.9.9,0,0,1-.49.87c0-.13.17-.21.16-.38h0A1.18,1.18,0,0,0,11.5,11.76Z" transform="translate(-3.1 -4.17)"/><path class="cls-7" d="M22.25,8.59V8.5c0-.92,0-1.83,0-2.74a1.43,1.43,0,0,1,.84-1.43A1.62,1.62,0,0,1,25,4.73a2.25,2.25,0,0,1,.41,1.21,6.34,6.34,0,0,1,0,2.26,16.45,16.45,0,0,0-.2,3.47q0,.09-.05.12a.21.21,0,0,1-.1-.11,24.83,24.83,0,0,1,0-3.25,18.15,18.15,0,0,0,0-2.79,1.23,1.23,0,0,0-1.28-1.2,1.41,1.41,0,0,0-1.3,1.35c0,.91,0,1.83,0,2.74a17.27,17.27,0,0,1,0,3.29.09.09,0,0,1-.13,0h0c-.09-.89,0-1.78,0-2.68A1.55,1.55,0,0,0,22.25,8.59Z" transform="translate(-3.1 -4.17)"/><path class="cls-8" d="M45.37,12.41a.2.2,0,0,1,.08-.18.82.82,0,0,0,.25-.74c0-.81,0-1.62,0-2.42,0-.4.11-.59.49-.58.91,0,1.82,0,2.73,0,.52,0,.68.16.69.76s0,1.24,0,1.87a5.78,5.78,0,0,0,.08,1,.72.72,0,0,1-.24-.65c0-.76,0-1.52,0-2.28,0-.32-.11-.44-.38-.44q-1.48,0-3,0c-.26,0-.32.11-.32.38,0,.84,0,1.68,0,2.51a1.17,1.17,0,0,1-.65,1.12Z" transform="translate(-3.1 -4.17)"/><path class="cls-9" d="M25.18,11.76s0-.06,0-.09.08-.29.08-.44c0-.7,0-1.4,0-2.1,0-.36.12-.55.45-.55,1,0,2,0,3,0,.29,0,.38.14.37.45,0,.62,0,1.25,0,1.86a2.39,2.39,0,0,0,.58,1.89,1.12,1.12,0,0,1-.65-1.1c0-.84,0-1.68,0-2.52,0-.31-.09-.4-.35-.4-.94,0-1.87,0-2.81,0-.35,0-.44.16-.43.53,0,.7,0,1.4,0,2.1a.7.7,0,0,1-.24.65A.22.22,0,0,1,25.18,11.76Z" transform="translate(-3.1 -4.17)"/><path class="cls-3" d="M37.64,12.88c.14-.15.28-.31.5-.27C38,12.87,37.83,12.86,37.64,12.88Z" transform="translate(-3.1 -4.17)"/><path class="cls-3" d="M37.15,12.88h.49A.35.35,0,0,1,37.15,12.88Z" transform="translate(-3.1 -4.17)"/><path class="cls-10" d="M35.8,28.09H20.57a1.59,1.59,0,0,1-1.14-.38,1.38,1.38,0,0,1,.2-2.24,2,2,0,0,1,1-.27H50.89a1.83,1.83,0,0,1,.87.2A1.35,1.35,0,0,1,52.53,27a1.4,1.4,0,0,1-1.23,1.09c-.2,0-.41,0-.61,0Z" transform="translate(-3.1 -4.17)"/><path class="cls-11" d="M35.76,62H51a1.71,1.71,0,0,1,1.76,1.31,1.64,1.64,0,0,1-.69,1.62,3.42,3.42,0,0,1-1.45.34H20.73a1.84,1.84,0,0,1-1.84-1.07,1.23,1.23,0,0,1,0-1.13A1.7,1.7,0,0,1,20.5,62C25.58,62,30.67,62,35.76,62Z" transform="translate(-3.1 -4.17)"/><path class="cls-12" d="M35.8,37.89H51.23a1.67,1.67,0,0,1,1.56,1.68A1.78,1.78,0,0,1,51.85,41a2.91,2.91,0,0,1-1.11.2H20.54A1.73,1.73,0,0,1,19,40.31a1.57,1.57,0,0,1,.59-2.18,1.92,1.92,0,0,1,1-.25Z" transform="translate(-3.1 -4.17)"/><path class="cls-13" d="M19.55,50.48a.82.82,0,0,1,.7-.29h31a1.56,1.56,0,0,1,1.45,1.3,1.6,1.6,0,0,1-1.28,1.68h-31a1.35,1.35,0,0,1-1.23-.66.16.16,0,0,1,.18,0c.16.1.3.23.47.31a1.37,1.37,0,0,0,.83.16H51a1,1,0,0,0,.8-.26,1.24,1.24,0,0,0,.47-1.29,1.21,1.21,0,0,0-1-.9,2.82,2.82,0,0,0-.85-.07h-30a.84.84,0,0,0-.56.08l-.12,0A.21.21,0,0,1,19.55,50.48Z" transform="translate(-3.1 -4.17)"/><path class="cls-14" d="M12.17,30.26a4,4,0,0,1-3-1.58,3.27,3.27,0,0,1-.54-2.81A3.34,3.34,0,0,1,11,23.31a3.64,3.64,0,0,1,3.74.86,4,4,0,0,1,1,1.85,2.92,2.92,0,0,1-.16,1.9,3.15,3.15,0,0,1-1.6,1.8A5.86,5.86,0,0,1,12.17,30.26Z" transform="translate(-3.1 -4.17)"/><path class="cls-15" d="M9,50.11a2,2,0,0,1,1-1.23,3.87,3.87,0,0,1,2.68-.58,3.25,3.25,0,0,1,2,.9A3.36,3.36,0,0,1,14.89,54a6.25,6.25,0,0,1-1.41,1,1,1,0,0,1-.52.07.75.75,0,0,1-.51.14,2.29,2.29,0,0,0-.72,0,5.37,5.37,0,0,1-1.91-.83A4.62,4.62,0,0,1,8.71,53c-.1-.18,0-.37-.07-.53a1.81,1.81,0,0,1,0-1.49h0c.1-.14,0-.33.08-.47h0C8.76,50.32,8.9,50.24,9,50.11Z" transform="translate(-3.1 -4.17)"/><path class="cls-16" d="M15.65,38.45s0,.06,0,.09,0,.33.08.47a1.26,1.26,0,0,1,0,.93h0c-.1.14,0,.33-.08.47s0,.06,0,.09a1.88,1.88,0,0,1-.16.37.21.21,0,0,0-.08.19c-.07.13-.17.24-.24.37h0a.8.8,0,0,1-.24.28,3.44,3.44,0,0,1-1.12.88,3.48,3.48,0,0,1-2.63.23,3.93,3.93,0,0,1-2-1.45,3.11,3.11,0,0,1-.62-2.17,3.41,3.41,0,0,1,1.56-2.58,2.35,2.35,0,0,1,1.27-.52,7.55,7.55,0,0,1,1.79,0A3.88,3.88,0,0,1,15.41,38,1.85,1.85,0,0,1,15.65,38.45Z" transform="translate(-3.1 -4.17)"/><path class="cls-17" d="M15.65,62.61a1.4,1.4,0,0,0,.08.65,1.21,1.21,0,0,1,0,.66,1.42,1.42,0,0,0-.08.65,1.92,1.92,0,0,1-.24.47l-.25.46a1.17,1.17,0,0,1-.33.37A3.83,3.83,0,0,1,13.25,67,4.73,4.73,0,0,1,12,67a3.14,3.14,0,0,1-2.69-1.31,3.23,3.23,0,0,1,.29-4.51,2.43,2.43,0,0,1,1.69-.9c.16-.19.39-.08.57-.18h.65c.21.08.46,0,.65.19a3.71,3.71,0,0,1,2.36,2A2,2,0,0,1,15.65,62.61Z" transform="translate(-3.1 -4.17)"/><path class="cls-18" d="M19.55,50.48h.25c0,.14-.06.19-.14.25a1.2,1.2,0,0,0-.39,1.4.58.58,0,0,1,0,.4h-.16A1.37,1.37,0,0,1,19.55,50.48Z" transform="translate(-3.1 -4.17)"/><path class="cls-19" d="M22.25,8.59c.13.14.08.32.08.48,0,.93,0,1.86,0,2.78-.13-.14-.08-.32-.08-.48,0-.9,0-1.79,0-2.69Z" transform="translate(-3.1 -4.17)"/><path class="cls-9" d="M24.69,12.79c-.15.42-.53.32-.78.32s-.82.16-1.1-.32c.26-.15.49.15.75.06H24C24.25,12.94,24.46,12.66,24.69,12.79Z" transform="translate(-3.1 -4.17)"/><path class="cls-19" d="M23.55,13c-.27.07-.49-.13-.73-.19-.23-.27-.52-.49-.49-.93h.08c.13,0,.19.17.25.29a1.2,1.2,0,0,0,.8.65l.1.07A.1.1,0,0,1,23.55,13Z" transform="translate(-3.1 -4.17)"/><path class="cls-19" d="M24.69,12.79c-.21.07-.41.26-.65.19a.12.12,0,0,1,.06-.15,2,2,0,0,0,1-1.06h.08V12s0,.06,0,.09a2,2,0,0,1-.33.56Z" transform="translate(-3.1 -4.17)"/><path class="cls-20" d="M8.65,51a3.13,3.13,0,0,0,0,1.49A1.31,1.31,0,0,1,8.65,51Z" transform="translate(-3.1 -4.17)"/><path class="cls-21" d="M13.13,36.11H11.33A3.59,3.59,0,0,1,13.13,36.11Z" transform="translate(-3.1 -4.17)"/><path class="cls-21" d="M15.73,39.94V39A.67.67,0,0,1,15.73,39.94Z" transform="translate(-3.1 -4.17)"/><path class="cls-22" d="M13.13,60.28a1.65,1.65,0,0,1-.65-.19C12.7,60.1,12.95,60,13.13,60.28Z" transform="translate(-3.1 -4.17)"/><path class="cls-23" d="M11.74,55.24c.23-.19.49-.05.73-.09t0,.06s0,0,0,0Z" transform="translate(-3.1 -4.17)"/><path class="cls-9" d="M24.85,12.69c0-.25.22-.37.33-.56A.6.6,0,0,1,24.85,12.69Z" transform="translate(-3.1 -4.17)"/><path class="cls-20" d="M12.47,55.24s0-.06,0-.09l.49-.09C12.86,55.31,12.65,55.23,12.47,55.24Z" transform="translate(-3.1 -4.17)"/><path class="cls-22" d="M11.82,60.1c-.17.15-.39.1-.57.18C11.39,60,11.62,60.12,11.82,60.1Z" transform="translate(-3.1 -4.17)"/><path class="cls-22" d="M15.73,63.92v-.66A.61.61,0,0,1,15.73,63.92Z" transform="translate(-3.1 -4.17)"/><path class="cls-22" d="M15.41,65a.87.87,0,0,1,.24-.47A.47.47,0,0,1,15.41,65Z" transform="translate(-3.1 -4.17)"/><path class="cls-21" d="M15.65,38.45a.88.88,0,0,1-.24-.47A.46.46,0,0,1,15.65,38.45Z" transform="translate(-3.1 -4.17)"/><path class="cls-22" d="M14.84,65.88a.91.91,0,0,1,.33-.37A.37.37,0,0,1,14.84,65.88Z" transform="translate(-3.1 -4.17)"/><path class="cls-20" d="M9,50.11c0,.18-.16.26-.24.37C8.7,50.26,8.83,50.18,9,50.11Z" transform="translate(-3.1 -4.17)"/><path class="cls-21" d="M15.16,41.43a.44.44,0,0,1,.24-.37A.44.44,0,0,1,15.16,41.43Z" transform="translate(-3.1 -4.17)"/><path class="cls-20" d="M8.73,50.48c0,.16.05.34-.08.47C8.67,50.79,8.59,50.62,8.73,50.48Z" transform="translate(-3.1 -4.17)"/><path class="cls-21" d="M14.92,41.71a.56.56,0,0,1,.24-.28Q15.15,41.7,14.92,41.71Z" transform="translate(-3.1 -4.17)"/><path class="cls-22" d="M15.65,62.61a.54.54,0,0,1-.16-.37C15.64,62.31,15.66,62.46,15.65,62.61Z" transform="translate(-3.1 -4.17)"/><path class="cls-21" d="M15.49,40.87a.54.54,0,0,1,.16-.37C15.66,40.66,15.64,40.8,15.49,40.87Z" transform="translate(-3.1 -4.17)"/><path class="cls-21" d="M15.65,40.41c0-.16-.05-.34.08-.47C15.71,40.1,15.78,40.28,15.65,40.41Z" transform="translate(-3.1 -4.17)"/><path class="cls-21" d="M15.73,39c-.13-.13-.06-.31-.08-.47C15.78,38.67,15.71,38.85,15.73,39Z" transform="translate(-3.1 -4.17)"/><path class="cls-19" d="M11.5,11.76a.52.52,0,0,1-.24.56Z" transform="translate(-3.1 -4.17)"/><path class="cls-2" d="M44.4,12.88a1.42,1.42,0,0,1-.93-.39.81.81,0,0,1-.38-.72c.07-1.85-.1-3.69-.08-5.54a5.62,5.62,0,0,1,.09-.92,1.24,1.24,0,0,1,1.31-.82c.76.22,1,.53,1,1.44,0,1.76,0,3.51,0,5.27,0,.74-.12,1.32-.82,1.54-.06,0-.11.09-.16.14Z" transform="translate(-3.1 -4.17)"/><path class="cls-3" d="M25.1,11.76c-.07.72-.57,1-1.06,1.21h-.49s0-.06,0-.09c.16-.17.37-.17.56-.26a1.29,1.29,0,0,0,.78-1.25c0-1.88,0-3.76,0-5.64a1.11,1.11,0,0,0-1.4-1.06,1.32,1.32,0,0,0-.67.5,1.61,1.61,0,0,0-.21.88c0,1.8.13,3.59.08,5.39a1.8,1.8,0,0,0,.09.54.91.91,0,0,0,.44.5c.14.09.34.13.33.39-.61,0-.9-.48-1.14-1,0-.81,0-1.62,0-2.42,0-1.16-.09-2.32-.08-3.48a1.62,1.62,0,0,1,.9-1.51,1.3,1.3,0,0,1,1.58.33A1.6,1.6,0,0,1,25.18,6C25.22,7.89,25,9.82,25.1,11.76Z" transform="translate(-3.1 -4.17)"/><path class="cls-24" d="M35.76,62.23h15.1a1.69,1.69,0,0,1,1.06.21,1.34,1.34,0,0,1,.6,1.22,1.36,1.36,0,0,1-.88,1.19,3.27,3.27,0,0,1-.8.11H20.68a1.72,1.72,0,0,1-1.13-.3,1.36,1.36,0,0,1,.58-2.42c.26,0,.52,0,.77,0Z" transform="translate(-3.1 -4.17)"/><path class="cls-25" d="M35.73,38.07H50.87a1.75,1.75,0,0,1,1.32.48,1.37,1.37,0,0,1,.3,1.4,1.22,1.22,0,0,1-.94.91,4,4,0,0,1-1.09.1H20.83a2,2,0,0,1-1.32-.34,1.33,1.33,0,0,1-.57-1.2,1.4,1.4,0,0,1,.82-1.18,2.3,2.3,0,0,1,1-.19Z" transform="translate(-3.1 -4.17)"/><path class="cls-24" d="M19.31,52.54a1.43,1.43,0,0,1,.49-2.05h0a2.39,2.39,0,0,1,.49-.19H50.81a1.92,1.92,0,0,1,1.13.33,1.36,1.36,0,0,1-.05,2.19,1.79,1.79,0,0,1-1.06.24H20.66a1.77,1.77,0,0,1-1-.24C19.48,52.8,19.39,52.68,19.31,52.54Z" transform="translate(-3.1 -4.17)"/><path class="cls-18" d="M19.64,52.82a4.88,4.88,0,0,0,2,.19H49.85a4.9,4.9,0,0,0,2-.19.87.87,0,0,1-.7.28H20.34A.87.87,0,0,1,19.64,52.82Z" transform="translate(-3.1 -4.17)"/><path class="cls-18" d="M20.3,50.3a.8.8,0,0,1-.49.19A.48.48,0,0,1,20.3,50.3Z" transform="translate(-3.1 -4.17)"/><path class="cls-26" d="M12.38,30A3.41,3.41,0,0,1,9,28a3.28,3.28,0,0,1,.25-3.09,3.54,3.54,0,0,1,5.51-.49,3.23,3.23,0,0,1-.57,5A2.85,2.85,0,0,1,12.38,30Z" transform="translate(-3.1 -4.17)"/><path class="cls-24" d="M12,48.43a3.38,3.38,0,0,1,3,1.52A3.16,3.16,0,0,1,14.62,54a3.41,3.41,0,0,1-4.51.31,3,3,0,0,1-1.24-3.49,3.07,3.07,0,0,1,1.83-2.1A2.41,2.41,0,0,1,12,48.43Z" transform="translate(-3.1 -4.17)"/><path class="cls-27" d="M12,36.19a3.43,3.43,0,0,1,3.11,1.57,3.17,3.17,0,0,1-.41,4,3.45,3.45,0,0,1-3.59.87,3.08,3.08,0,0,1-2.17-2.05,3.12,3.12,0,0,1,.35-2.84A3.33,3.33,0,0,1,12,36.19Z" transform="translate(-3.1 -4.17)"/><path class="cls-24" d="M15.57,63.58a3.26,3.26,0,0,1-2,3,3.45,3.45,0,0,1-3.81-.71,3.23,3.23,0,0,1-.5-4A3.38,3.38,0,0,1,13,60.41a3.38,3.38,0,0,1,2.48,2.29A2.79,2.79,0,0,1,15.57,63.58Z" transform="translate(-3.1 -4.17)"/><path class="cls-2" d="M23.55,12.88c-.14-.2-.36-.25-.54-.39s-.28-.15-.28-.36a2.06,2.06,0,0,1-.08-.64c0-1.78-.06-3.57,0-5.35A4.57,4.57,0,0,1,22.74,5c.71-.66,1.12-.74,1.75-.29a1.16,1.16,0,0,1,.53,1c0,1.8,0,3.6,0,5.4a1.5,1.5,0,0,1-1.47,1.72Z" transform="translate(-3.1 -4.17)"/><path class="cls-28" d="M22.74,5q0,3.55,0,7.09a1,1,0,0,1-.16-.61c.06-1.81-.12-3.62-.09-5.44A2.07,2.07,0,0,1,22.74,5Z" transform="translate(-3.1 -4.17)"/><path class="cls-27" d="M35.74,40.78H20.4a1.21,1.21,0,0,1-1.24-1.38,1.18,1.18,0,0,1,.91-1.05,18,18,0,0,1,2.84-.08H50.66a1.83,1.83,0,0,1,1.24.27,1.24,1.24,0,0,1,.46,1.4,1.34,1.34,0,0,1-1,.84,4.34,4.34,0,0,1-.49,0Z" transform="translate(-3.1 -4.17)"/><path class="cls-10" d="M12.29,29.78a3.2,3.2,0,0,1-3-1.51,3.1,3.1,0,0,1-.4-2.33A2.83,2.83,0,0,1,10,24.28a3.39,3.39,0,0,1,5.42,1.79,2.48,2.48,0,0,1-.11,1.48A3.2,3.2,0,0,1,13.8,29.4,2.24,2.24,0,0,1,12.29,29.78Z" transform="translate(-3.1 -4.17)"/></svg>