<svg id="Layer_1" data-name="Layer 1" xmlns="http://www.w3.org/2000/svg" viewBox="0 0 49.55 25.44"><defs><style>.cls-1{fill:#fff;}.cls-1,.cls-2,.cls-3,.cls-4{fill-rule:evenodd;}.cls-2{fill:#e41e29;}.cls-3{fill:#bc2126;}.cls-4{fill:#911b1d;}</style></defs><title>logo</title><polygon class="cls-1" points="31.29 4 27.7 4 27.7 20.66 27.7 25.41 23.71 25.41 23.71 20.66 23.71 4 19.86 4 19.86 0 23.71 0 27.7 0 31.29 0 31.29 4"/><polygon class="cls-1" points="49.55 0 49.55 25.41 45.56 25.41 45.56 11.77 43.34 23.52 39.86 23.52 37.64 11.77 37.64 25.41 33.65 25.41 33.65 0 39.86 0 41.6 10.13 43.34 0 49.55 0"/><path class="cls-2" d="M8.84,3.54H5.35l7.6,24.87h3.49L24,3.54H20.58c-4.45,14.33-1.35,4.4-5.88,19.65C11.61,12.8,11.45,12.1,8.84,3.54Z" transform="translate(-5.35 -2.98)"/><path class="cls-3" d="M12.95,28.42l1.74-5.18v0c-2.17-7.29-2.89-9.81-4-13.61C10.19,8,9.61,6.1,8.84,3.54H5.36Z" transform="translate(-5.35 -2.98)"/><path class="cls-4" d="M14.69,10.66c-3.17,0-6-1.9-8.12-5A18,18,0,0,1,5.35,3.54H8.86v0a7.48,7.48,0,0,0,5.82,3.22,7.45,7.45,0,0,0,5.8-3.17l.06-.07H24l0,.09a19.2,19.2,0,0,1-1.18,2C20.75,8.75,17.88,10.66,14.69,10.66Z" transform="translate(-5.35 -2.98)"/><path class="cls-2" d="M21.94,10.39,24,3.54H20.58C19.5,7,18.86,9.06,18.46,10.39Z" transform="translate(-5.35 -2.98)"/></svg>